# xmcd
#
# Track frame offsets:
#	187
#	17085
#	37600
#	60012
#	83250
#	105612
#	117200
#	137390
#	151002
#	166175
#	183440
#	197987
#
# Disc length: 2829 seconds
#
# Revision: 2
# Processed by: cddbd v1.5.2PL0 Copyright (c) Steve Scherf et al.
# Submitted via: EZCDAudioConverter 1.0.6.1
#
DISCID=790b0b0c
DTITLE=John Delafose and Willis Prudhomme - Zydeco Live! Direct from Richad's Cl
DTITLE=ub, Lawtell, Louisiana
DYEAR=1900
DGENRE=Blues
TTITLE0=John Delafose and the Eunice Playboys - Poor Man Two Step
TTITLE1=John Delafose and the Eunice Playboys - I Done Got Over It
TTITLE2=John Delafose and the Eunice Playboys - Oh Yi Li'l Girl
TTITLE3=John Delafose and the Eunice Playboys - I Don't Want Nobody Here But Y
TTITLE3=ou
TTITLE4=John Delafose and the Eunice Playboys - Gotta Find My Woman
TTITLE5=Willis Prudhomme and the Zydeco Express - My Woman Is A Salty Dog
TTITLE6=Willis Prudhomme and the Zydeco Express - Why You Want To Make Me Cry
TTITLE7=Willis Prudhomme and the Zydeco Express - Zydeco Queen
TTITLE8=Willis Prudhomme and the Zydeco Express - No Sad Songs
TTITLE9=Willis Prudhomme and the Zydeco Express - Paper in My Shoe
TTITLE10=Willis Prudhomme and the Zydeco Express - Those Tears In Your Eyes Ar
TTITLE10=e Not For Me
TTITLE11=Willis Prudhomme and the Zydeco Express - Bernadette
EXTD=
EXTT0=
EXTT1=
EXTT2=
EXTT3=
EXTT4=
EXTT5=
EXTT6=
EXTT7=
EXTT8=
EXTT9=
EXTT10=
EXTT11=
PLAYORDER=
